<svg width="32" height="32" viewBox="0 0 32 32" fill="none" xmlns="http://www.w3.org/2000/svg">
<path d="M16 32C7.16344 32 0 24.8366 0 16C0 7.16344 7.16344 0 16 0C24.8366 0 32 7.16344 32 16C32 24.8366 24.8366 32 16 32Z" fill="#3974F6"/>
<path d="M16.1384 10.8015L17.7484 7.25852C18.1024 6.46852 19.2364 6.46852 19.5904 7.25852L21.2004 10.8015L24.7434 12.4115C25.5334 12.7755 25.5334 13.8995 24.7434 14.2535L21.2004 15.8635L19.5904 19.4075C19.2264 20.1965 18.1024 20.1965 17.7484 19.4075L16.1384 15.8635L12.5944 14.2535C11.8054 13.8895 11.8054 12.7655 12.5944 12.4115L16.1384 10.8015Z" fill="#00F9FF"/>
<path d="M9.56224 18.8948L10.6882 16.4147C10.9362 15.8618 11.7302 15.8618 11.9782 16.4147L13.1052 18.8948L15.5853 20.0218C16.1382 20.2768 16.1382 21.0638 15.5853 21.3118L13.1052 22.4378L11.9782 24.9188C11.7232 25.4718 10.9362 25.4718 10.6882 24.9188L9.56224 22.4378L7.08124 21.3118C6.52824 21.0558 6.52824 20.2698 7.08124 20.0218L9.56224 18.8948Z" fill="#F9FAFF"/>
</svg>
